<?xml version="1.0" encoding="UTF-8"?>
<svg width="128" height="128" viewBox="0 0 128 128" fill="none" xmlns="http://www.w3.org/2000/svg">
  <!-- 背景圆形 -->
  <circle cx="64" cy="64" r="60" fill="#25D366" stroke="#fff" stroke-width="4"/>
  
  <!-- WhatsApp W图标 -->
  <path d="M64 20C40.8 20 22 38.8 22 62c0 8.4 2.6 16.2 7 22.6L26 108l24.4-3c6.2 3.8 13.6 6 21.6 6 23.2 0 42-18.8 42-42S87.2 20 64 20zm0 76c-6.8 0-13.2-2-18.6-5.4l-1.4-.8-12.8 1.6 1.6-12.8-.8-1.4C29 71.2 27 65.8 27 62c0-20.4 16.6-37 37-37s37 16.6 37 37-16.6 34-37 34z" fill="white"/>
  
  <!-- 管理系统标识 -->
  <rect x="75" y="75" width="40" height="40" rx="20" fill="#FF6B35" stroke="#fff" stroke-width="2"/>
  <text x="95" y="99" text-anchor="middle" fill="white" font-family="Arial, sans-serif" font-size="18" font-weight="bold">M</text>
</svg> 